<svg width="300" height="300" viewBox="0 0 300 300" fill="none" xmlns="http://www.w3.org/2000/svg">
<path fill-rule="evenodd" clip-rule="evenodd" d="M300 205.388C300 205.388 300.074 236.67 296.668 250.207C293.263 263.744 287.014 273.207 280.085 280.136C273.156 287.065 263.909 293.431 249.859 296.715C235.81 300 205.326 299.953 205.326 299.953L94.5766 300C94.5766 300 63.2948 300.074 49.7498 296.668C36.2048 293.263 26.746 287.014 19.8171 280.089C12.8882 273.164 6.52237 263.916 3.23779 249.871C-0.0467927 235.825 0.000129836 205.345 0.000129836 205.345V94.6078C0.000129836 94.6078 -0.0741644 63.3261 3.33164 49.7889C6.73744 36.2518 12.986 26.789 19.9149 19.864C26.8438 12.939 36.0914 6.5693 50.1409 3.28471C64.1903 0.0001297 94.6743 0.0470525 94.6743 0.0470525L205.423 0.000129836C205.423 0.000129836 236.705 -0.0741644 250.25 3.33164C263.795 6.73744 273.254 12.986 280.183 19.911C287.112 26.836 293.478 36.0836 296.762 50.1291C300.047 64.1746 300 94.6548 300 94.6548V205.388Z" fill="#123326"/>
<path fill-rule="evenodd" clip-rule="evenodd" d="M205.984 218.477C205.906 243.422 189.783 265.385 166.265 272.584C142.747 279.782 117.36 270.525 103.722 249.778C90.0834 229.031 91.3991 201.669 106.963 182.37C110.702 177.678 117.262 176.478 122.379 179.549L137.933 188.858C134.6 192.243 131.406 195.769 128.35 199.436C120.013 209.221 119.023 223.416 125.921 234.296C132.819 245.176 145.952 250.136 158.174 246.478C170.395 242.819 178.78 231.417 178.764 218.477C178.763 208.838 174.088 199.817 166.265 194.359H166.126L162.793 192.384L145.433 181.947L145.294 181.806L123.073 168.548L114.185 163.188C113.768 162.906 113.49 162.765 113.074 162.483C111.819 161.766 110.612 160.965 109.463 160.085C84.4138 142.33 73.3948 110.267 82.1258 80.5388C90.8568 50.8108 117.371 30.1165 147.904 29.1985C178.437 28.2805 206.11 47.3456 216.557 76.497C227.004 105.648 217.872 138.318 193.902 157.546C189.965 160.743 184.493 161.136 180.153 158.534L155.154 143.865V112.272H166.681V79.9727H155.154V66.4326H135.989V144.147L155.154 155.431L176.125 167.843C176.462 168.007 176.787 168.196 177.097 168.407L178.069 168.971C178.625 169.253 179.042 169.535 179.597 169.817C196.053 180.343 206.022 198.726 205.984 218.477Z" fill="white"/>
</svg>
